# xmcd CD database file
#
# Track frame offsets:
#	150
#	13695
#	33808
#	60045
#
# Disc length: 1109 seconds
#
# Revision: 1
# Processed by: cddbd v1.4b41PL3 Copyright (c) Steve Scherf et al.
# Submitted via: CDex 1.40Beta4
#
DISCID=1e045304
DTITLE=Palace Brothers - An Arrow Through The Bitch
DYEAR=1900
DGENRE=Country
TTITLE0=Come In
TTITLE1=Horses
TTITLE2=Stable Will
TTITLE3=Trudy Dies
EXTD=ID3G:   2
EXTT0=
EXTT1=
EXTT2=
EXTT3=
PLAYORDER=
